<?xml version="1.0" encoding="iso-8859-1"?>
<!-- Generator: Adobe Illustrator 18.1.1, SVG Export Plug-In . SVG Version: 6.00 Build 0)  -->
<svg version="1.1" id="Capa_1" xmlns="http://www.w3.org/2000/svg" xmlns:xlink="http://www.w3.org/1999/xlink" x="0px" y="0px"
	 viewBox="0 0 31.006 31.006" style="enable-background:new 0 0 31.006 31.006;" xml:space="preserve">
<g>
	<path style="fill:#cbc9cd;" d="M25.899,0H5.109C4.17,0,3.411,0.762,3.411,1.697v27.611c0,0.939,0.759,1.697,1.698,1.697h15.603v-6.02
		c0-0.938,0.762-1.695,1.698-1.695h5.185V1.697C27.595,0.762,26.837,0,25.899,0z M17.48,3.568v0.074c0,0.648-0.6,1.137-1.247,1.137
		h-1.099c-0.647,0-1.173-0.488-1.173-1.137V3.568c0-0.646,0.525-1.172,1.173-1.172h1.099C16.881,2.396,17.48,2.922,17.48,3.568z
		 M11.616,1.188c0-0.646,0.525-1.135,1.175-1.135H14c0.646,0,1.17,0.488,1.17,1.135v0.037c0,0.646-0.523,1.172-1.17,1.172h-1.209
		c-0.649,0-1.175-0.525-1.175-1.172V1.188z M12.753,4.779h1.209c0.65,0,1.173,0.486,1.173,1.135c0,0.646-0.522,1.172-1.173,1.172
		h-1.209c-0.646,0-1.174-0.525-1.174-1.172C11.579,5.266,12.106,4.779,12.753,4.779z M11.579,10.643v-0.037
		c0-0.65,0.527-1.174,1.174-1.174H14c0.646,0,1.17,0.523,1.17,1.174v0.037c0,0.645-0.523,1.172-1.17,1.172h-1.247
		C12.106,11.814,11.579,11.287,11.579,10.643z M16.307,23.502h-2.271c-0.646,0-1.209-0.527-1.209-1.176v-5.822
		c0-0.648,0.562-1.174,1.209-1.174h2.198c0.647,0,1.209,0.525,1.209,1.174l0.038,5.822C17.48,22.975,16.955,23.502,16.307,23.502z
		 M16.343,14.123h-1.208c-0.647,0-1.173-0.488-1.173-1.139c0-0.646,0.525-1.17,1.173-1.17h1.208c0.648,0,1.173,0.523,1.173,1.17
		C17.515,13.635,16.991,14.123,16.343,14.123z M16.271,9.432h-1.175c-0.646,0-1.171-0.527-1.171-1.172
		c0-0.648,0.525-1.174,1.171-1.174h1.175c0.646,0,1.244,0.525,1.244,1.174C17.515,8.904,16.918,9.432,16.271,9.432z"/>
	<rect x="13.888" y="18.596" width="2.182" height="1.166"/>
	<path style="fill:#cbc9cd;" d="M22.398,26.492v4.514l5.196-6.312l-3.497,0.1C23.158,24.793,22.398,25.555,22.398,26.492z"/>
	<g>
	</g>
	<g>
	</g>
	<g>
	</g>
	<g>
	</g>
	<g>
	</g>
	<g>
	</g>
	<g>
	</g>
	<g>
	</g>
	<g>
	</g>
	<g>
	</g>
	<g>
	</g>
	<g>
	</g>
	<g>
	</g>
	<g>
	</g>
	<g>
	</g>
</g>
<g>
</g>
<g>
</g>
<g>
</g>
<g>
</g>
<g>
</g>
<g>
</g>
<g>
</g>
<g>
</g>
<g>
</g>
<g>
</g>
<g>
</g>
<g>
</g>
<g>
</g>
<g>
</g>
<g>
</g>
</svg>
